#!OML:ASF H:\Pregnant\Project 1\Capture day 1\Session 1\femalepreg.ASF
:FULLY-SPECIFIED
:DEGREES
254
root 6.92036 4.89194 20.4199 -135.163 6.46216 -181.671
lowerback 2.92105 0.0409457 8.31293
upperback 2.27629 0.542558 3.66679
thorax 0.742069 0.478692 -0.876604
lowerneck -23.3877 5.73489 0.576723
upperneck 8.24697 8.712 -6.77036
head 6.59793 3.7207 -1.21886
rclavicle -3.97569e-014 -6.52014e-014
rhumerus 38.1195 32.901 -64.2609
rradius 57.1317
rwrist -27.2858
rhand -8.52465 -39.894
rfingers 7.12502
rthumb 17.404 -69.1348
lclavicle -3.97569e-014 -6.52014e-014
lhumerus 1.34457 -24.2585 86.656
lradius 64.9443
lwrist 109.465
lhand 30.3289 -44.0673
lfingers 7.12502
lthumb 54.0024 -25.2309
rfemur -202.305 -20.3443 66.9914
rtibia 154.904
rfoot -12.6012 21.9811
rtoes 1.07432
lfemur -201.661 10.2165 -59.2652
ltibia 161.269
lfoot 1.58992 -21.392
ltoes -10.5488
255
root 6.91602 4.90253 20.4155 -134.847 6.51192 -181.684
lowerback 2.76202 0.107377 8.31918
upperback 2.16075 0.620123 3.71657
thorax 0.716767 0.513247 -0.829815
lowerneck -23.3267 5.76842 0.595324
upperneck 8.00937 8.76892 -6.91683
head 6.52186 3.75167 -1.26512
rclavicle 6.36111e-015 4.77083e-015
rhumerus 37.61 32.713 -64.5643
rradius 57.8621
rwrist -27.5748
rhand -8.53562 -39.8437
rfingers 7.12502
rthumb 17.3934 -69.0855
lclavicle 6.36111e-015 4.77083e-015
lhumerus 1.05149 -24.4153 86.7168
lradius 65.4376
lwrist 109.335
lhand 30.3133 -44.0581
lfingers 7.12502
lthumb 53.9884 -25.2122
rfemur -202.149 -20.1618 66.6088
rtibia 154.765
rfoot -12.6476 21.6647
rtoes 0.835515
lfemur -201.391 9.99129 -59.0635
ltibia 161.148
lfoot 1.25242 -21.054
ltoes -10.5252
256
root 6.91239 4.91378 20.4115 -134.529 6.55178 -181.676
lowerback 2.60077 0.176317 8.33637
upperback 2.05061 0.701652 3.76703
thorax 0.698641 0.550716 -0.788089
lowerneck -23.2733 5.79987 0.613593
upperneck 7.77255 8.82278 -7.0598
head 6.44716 3.78173 -1.31037
rclavicle 2.22639e-014 3.73715e-014
rhumerus 37.1012 32.4838 -64.9041
rradius 58.6258
rwrist -27.7822
rhand -8.33228 -40.0908
rfingers 7.12502
rthumb 17.5891 -69.3152
lclavicle 2.22639e-014 3.73715e-014
lhumerus 0.772864 -24.562 86.7723
lradius 65.9344
lwrist 109.131
lhand 30.226 -44.062
lfingers 7.12502
lthumb 53.9101 -25.1633
rfemur -201.925 -19.9651 66.2218
rtibia 154.612
rfoot -12.7388 21.2995
rtoes 0.515317
lfemur -201.122 9.77513 -58.8558
ltibia 161.015
lfoot 0.898681 -20.712
ltoes -10.4366
257
root 6.90958 4.92574 20.4078 -134.205 6.5832 -181.65
lowerback 2.43949 0.242589 8.35592
upperback 1.94598 0.780043 3.81904
thorax 0.685929 0.587289 -0.745664
lowerneck -23.2602 5.84095 0.644214
upperneck 7.55562 8.88783 -7.20379
head 6.38638 3.81622 -1.35528
rclavicle -9.54166e-015 -2.38542e-014
rhumerus 36.617 32.2379 -65.2601
rradius 59.4024
rwrist -27.9408
rhand -8.08847 -40.4203
rfingers 7.12502
rthumb 17.8237 -69.6235
lclavicle -9.54166e-015 -2.38542e-014
lhumerus 0.511417 -24.7032 86.8128
lradius 66.4117
lwrist 108.809
lhand 30.0458 -44.1368
lfingers 7.12502
lthumb 53.7482 -25.1299
rfemur -201.677 -19.7652 65.8483
rtibia 154.458
rfoot -12.8122 20.946
rtoes 0.353434
lfemur -200.858 9.56421 -58.6444
ltibia 160.87
lfoot 0.535022 -20.3655
ltoes -10.2873
258
root 6.90747 4.9387 20.4045 -133.877 6.60648 -181.606
lowerback 2.28466 0.303198 8.37549
upperback 1.85155 0.851642 3.87193
thorax 0.679554 0.621254 -0.701942
lowerneck -23.3143 5.8968 0.696575
upperneck 7.3677 8.97029 -7.35366
head 6.3475 3.85709 -1.40133
rclavicle -4.13472e-014 -3.10104e-014
rhumerus 36.1807 31.983 -65.6187
rradius 60.1851
rwrist -28.0509
rhand -7.77942 -40.9568
rfingers 7.12502
rthumb 18.1211 -70.1327
lclavicle -4.13472e-014 -3.10104e-014
lhumerus 0.279872 -24.8097 86.821
lradius 66.9014
lwrist 108.499
lhand 29.8502 -44.2262
lfingers 7.12502
lthumb 53.5722 -25.103
rfemur -201.376 -19.5539 65.4735
rtibia 154.292
rfoot -12.9061 20.5643
rtoes 0.164303
lfemur -200.594 9.36442 -58.4323
ltibia 160.712
lfoot 0.162223 -20.0207
ltoes -10.0834
259
root 6.90597 4.95314 20.402 -133.548 6.62023 -181.551
lowerback 2.13633 0.356496 8.3966
upperback 1.77094 0.913645 3.92173
thorax 0.683185 0.651301 -0.66181
lowerneck -23.4337 5.96643 0.765993
upperneck 7.19768 9.0687 -7.50153
head 6.32589 3.90472 -1.44561
rclavicle -2.22639e-014 -3.81667e-014
rhumerus 35.8088 31.7446 -65.956
rradius 60.9479
rwrist -28.2042
rhand -7.6945 -41.3068
rfingers 7.12502
rthumb 18.2028 -70.4751
lclavicle -2.22639e-014 -3.81667e-014
lhumerus 0.0949276 -24.7786 86.794
lradius 67.4807
lwrist 108.467
lhand 29.796 -44.2024
lfingers 7.12502
lthumb 53.5235 -25.0472
rfemur -201.049 -19.3516 65.127
rtibia 154.12
rfoot -12.99 20.2108
rtoes 0.147452
lfemur -200.316 9.17361 -58.2146
ltibia 160.533
lfoot -0.213535 -19.6785
ltoes -9.81759
260
root 6.90489 4.9694 20.4004 -133.22 6.61952 -181.486
lowerback 1.9984 0.399671 8.42099
upperback 1.69902 0.963245 3.97201
thorax 0.689057 0.675689 -0.62268
lowerneck -23.5913 6.05027 0.847613
upperneck 7.03241 9.18433 -7.65185
head 6.3132 3.96028 -1.48935
rclavicle -2.06736e-014 2.8625e-014
rhumerus 35.4887 31.544 -66.2655
rradius 61.6887
rwrist -28.4771
rhand -7.94897 -41.3423
rfingers 7.12502
rthumb 17.9579 -70.5332
lclavicle -2.06736e-014 2.8625e-014
lhumerus -0.053265 -24.6167 86.7404
lradius 68.1351
lwrist 108.677
lhand 29.8811 -44.0637
lfingers 7.12502
lthumb 53.6 -24.9588
rfemur -200.691 -19.1538 64.7989
rtibia 153.939
rfoot -13.0885 19.8549
rtoes 0.15798
lfemur -200.01 8.99297 -57.9878
ltibia 160.334
lfoot -0.602129 -19.3442
ltoes -9.53363
261
root 6.90431 4.98764 20.3993 -132.894 6.61344 -181.413
lowerback 1.87186 0.440113 8.4443
upperback 1.63032 1.01049 4.02111
thorax 0.691653 0.698975 -0.584147
lowerneck -23.7604 6.13691 0.924957
upperneck 6.86262 9.30369 -7.7917
head 6.30034 4.01871 -1.5283
rclavicle -6.36111e-015 -3.81667e-014
rhumerus 35.1875 31.3658 -66.5624
rradius 62.4071
rwrist -28.824
rhand -8.42323 -41.1089
rfingers 7.12502
rthumb 17.5016 -70.3411
lclavicle -6.36111e-015 -3.81667e-014
lhumerus -0.182829 -24.3898 86.6725
lradius 68.8727
lwrist 109.222
lhand 30.4611 -43.5435
lfingers 7.12502
lthumb 54.121 -24.7876
rfemur -200.237 -18.9246 64.4236
rtibia 153.721
rfoot -13.268 19.3816
rtoes -0.220886
lfemur -199.679 8.83829 -57.7724
ltibia 160.12
lfoot -1.02377 -19.0316
ltoes -9.25813
262
root 6.90417 5.00836 20.3991 -132.571 6.59771 -181.334
lowerback 1.75929 0.483753 8.47469
upperback 1.55156 1.06488 4.07007
thorax 0.676519 0.725248 -0.549966
lowerneck -23.8864 6.2105 0.972042
upperneck 6.67336 9.40903 -7.90783
head 6.27138 4.07345 -1.55798
rclavicle -3.97569e-014 -1.66184e-013
rhumerus 34.8629 31.2 -66.8538
rradius 63.1056
rwrist -29.2647
rhand -9.1274 -40.5736
rfingers 7.12502
rthumb 16.8238 -69.8648
lclavicle -3.97569e-014 -1.66184e-013
lhumerus -0.327476 -24.1741 86.619
lradius 69.6607
lwrist 109.979
lhand 31.2974 -42.7501
lfingers 7.12502
lthumb 54.8694 -24.5174
rfemur -199.699 -18.6771 64.0177
rtibia 153.468
rfoot -13.5186 18.8132
rtoes -0.953952
lfemur -199.302 8.70258 -57.5527
ltibia 159.888
lfoot -1.49187 -18.7276
ltoes -9.01747
263
root 6.90464 5.03187 20.3997 -132.25 6.57081 -181.254
lowerback 1.65824 0.529261 8.50786
upperback 1.46075 1.12448 4.12052
thorax 0.642735 0.753431 -0.516087
lowerneck -23.9636 6.27148 0.988792
upperneck 6.46591 9.50142 -8.00374
head 6.22609 4.12479 -1.57956
rclavicle 4.77083e-015 -3.73715e-014
rhumerus 34.5144 31.0306 -67.1409
rradius 63.7772
rwrist -29.7309
rhand -9.86671 -39.8796
rfingers 7.12502
rthumb 16.112 -69.2298
lclavicle 4.77083e-015 -3.73715e-014
lhumerus -0.497237 -24.0422 86.587
lradius 70.4375
lwrist 110.768
lhand 32.2351 -41.7696
lfingers 7.12502
lthumb 55.7044 -24.153
rfemur -199.108 -18.4226 63.5933
rtibia 153.189
rfoot -13.8021 18.1862
rtoes -1.89804
lfemur -198.859 8.57761 -57.3196
ltibia 159.633
lfoot -2.01906 -18.4161
ltoes -8.82519
264
root 6.90587 5.05844 20.4015 -131.928 6.53374 -181.179
lowerback 1.56715 0.578894 8.53998
upperback 1.35505 1.19197 4.1688
thorax 0.588421 0.784553 -0.484256
lowerneck -23.9959 6.31799 0.984457
upperneck 6.24472 9.57605 -8.08091
head 6.16677 4.17021 -1.59548
rclavicle 2.54444e-014 2.62396e-014
rhumerus 34.1363 30.8361 -67.4333
rradius 64.4271
rwrist -30.1589
rhand -10.4606 -39.2885
rfingers 7.12502
rthumb 15.5401 -68.684
lclavicle 2.54444e-014 2.62396e-014
lhumerus -0.693373 -24.0366 86.5765
lradius 71.1527
lwrist 111.424
lhand 33.024 -40.7807
lfingers 7.12502
lthumb 56.4032 -23.7082
rfemur -198.506 -18.1895 63.1895
rtibia 152.9
rfoot -14.0628 17.6013
rtoes -2.6489
lfemur -198.342 8.45095 -57.0549
ltibia 159.345
lfoot -2.59507 -18.073
ltoes -8.64655
265
root 6.90799 5.08797 20.4043 -131.595 6.48844 -181.112
lowerback 1.46349 0.631508 8.56852
upperback 1.24271 1.26199 4.2109
thorax 0.534479 0.81663 -0.456608
lowerneck -24.0037 6.35036 0.963929
upperneck 6.00668 9.63309 -8.14115
head 6.09582 4.20979 -1.60664
rclavicle -3.02153e-014 -7.95139e-014
rhumerus 33.7566 30.6068 -67.7256
rradius 65.0443
rwrist -30.5059
rhand -10.8525 -38.7907
rfingers 7.12502
rthumb 15.1626 -68.2153
lclavicle -3.02153e-014 -7.95139e-014
lhumerus -0.897257 -24.1547 86.573
lradius 71.769
lwrist 111.806
lhand 33.4445 -40.0189
lfingers 7.12502
lthumb 56.7742 -23.2463
rfemur -197.933 -17.9897 62.8291
rtibia 152.616
rfoot -14.2592 17.1308
rtoes -2.91724
lfemur -197.75 8.3049 -56.7455
ltibia 159.016
lfoot -3.2088 -17.6784
ltoes -8.48093
266
root 6.91105 5.12045 20.4081 -131.247 6.43572 -181.056
lowerback 1.35109 0.685811 8.58601
upperback 1.1245 1.33324 4.2489
thorax 0.479276 0.848958 -0.426936
lowerneck -24.0141 6.37889 0.942672
upperneck 5.76757 9.68511 -8.1975
head 6.02451 4.24766 -1.61712
rclavicle 1.43125e-014 8.90555e-014
rhumerus 33.3905 30.3396 -68.0072
rradius 65.6316
rwrist -30.7457
rhand -10.9527 -38.5932
rfingers 7.12502
rthumb 15.0661 -68.0249
lclavicle 1.43125e-014 8.90555e-014
lhumerus -1.09705 -24.3607 86.5783
lradius 72.2729
lwrist 111.898
lhand 33.434 -39.5703
lfingers 7.12502
lthumb 56.7649 -22.7901
rfemur -197.384 -17.8108 62.4926
rtibia 152.334
rfoot -14.4062 16.744
rtoes -2.80972
lfemur -197.087 8.137 -56.3911
ltibia 158.646
lfoot -3.85732 -17.2292
ltoes -8.3436
